<?xml version="1.0" encoding="utf-8"?>
<!-- Generator: Adobe Illustrator 24.3.0, SVG Export Plug-In . SVG Version: 6.00 Build 0)  -->
<svg version="1.1" id="Layer_1" xmlns="http://www.w3.org/2000/svg" xmlns:xlink="http://www.w3.org/1999/xlink" x="0px" y="0px"
	 viewBox="0 0 172.39 146.88" style="enable-background:new 0 0 172.39 146.88;" xml:space="preserve">
<path d="M103.43,26.26c-0.02-0.07-0.23-0.81-0.52-1.83c-0.46-1.63-0.83-2.95-1.06-3.8c-0.1-0.02-0.26-0.02-0.43,0.02
	c-0.45,0.12-0.66,0.52-0.7,0.6c-0.28,0.34-0.67,0.84-1.1,1.48c-0.58,0.87-2.37,3.74-2.85,7.42c-0.3,2.34-0.14,4.21,0.66,6.84
	c1.21,4,2.25,8.06,3.4,12.08c2.12,7.42,4.39,14.8,5.49,22.48c1.28,8.95-1.37,16.4-8.6,21.83c-9.9,7.43-21.11,8.95-32.94,6.1
	c-4.4-1.06-7.77-3.74-9.15-8.31c-0.24-0.8-0.32-1.87,0.01-2.6c1.03-2.26,1.94-4.73,3.55-6.53c3.52-3.96,7.41-7.58,11.2-11.29
	c2.49-2.44,5.08-4.78,7.65-7.19c-1.14-1.75-2.21-3.39-3.3-5.05c-0.22,0.12-0.36,0.16-0.44,0.25c-4.58,4.88-9.3,9.63-13.69,14.67
	c-4.94,5.66-8.33,12.15-9.28,19.74c-0.48,3.85-0.43,7.67,0.75,11.41c2.39,7.57,8.8,12.28,17.57,12.68
	c13.54,0.62,24.47-4.41,32.58-15.38c6.33-8.56,8.57-18.35,8.59-28.76c0.01-8.49-1.4-16.85-2.97-25.16
	C107.87,47.93,106.13,35.64,103.43,26.26z"/>
</svg>
